<?xml version="1.0" encoding="utf-8"?>
<!-- Generator: Adobe Illustrator 18.0.0, SVG Export Plug-In . SVG Version: 6.00 Build 0)  -->
<!DOCTYPE svg PUBLIC "-//W3C//DTD SVG 1.1//EN" "http://www.w3.org/Graphics/SVG/1.1/DTD/svg11.dtd">
<svg version="1.1" id="Layer_1" xmlns="http://www.w3.org/2000/svg" xmlns:xlink="http://www.w3.org/1999/xlink" x="0px" y="0px"
	 width="30px" height="30px" viewBox="0 0 30 30" enable-background="new 0 0 30 30" xml:space="preserve">
<g>
	<path fill="#FFFFFF" d="M24.6,25.4c-4.1-7-8.1-13.8-12.1-20.8c0.2,0,0.2,0,0.3,0c1.3,0,2.6,0,3.8,0c1,0,1.7,0.4,2.2,1.3
		c2.6,4.6,5.3,9,7.9,13.6c0.4,0.7,0.5,1.5,0.1,2.2C26,22.9,25.3,24.1,24.6,25.4z"/>
	<path fill="#FFFFFF" d="M20.6,25.4c-1.2,0-2.3,0-3.5,0c-3.3,0-6.6,0-9.8,0c-1,0-1.8-0.4-2.3-1.4c-0.6-1-1.1-2.1-1.8-3.1
		c-0.1-0.1-0.1-0.2-0.2-0.3c0.2,0,0.2,0,0.3,0c4.7,0,9.4,0,14.1,0c0.2,0,0.3,0.1,0.5,0.2c0.8,1.4,1.7,2.8,2.5,4.2
		C20.5,25.2,20.5,25.3,20.6,25.4z"/>
	<path fill="#FFFFFF" d="M10.4,8c1.8,3.1,3.6,6.2,5.4,9.2c-0.1,0.1-0.2,0.1-0.2,0.1c-3.4,0-6.8,0-10.2,0c-0.2,0-0.4,0.1-0.2-0.2
		c1.6-3,3.4-5.9,5-8.9C10.4,8.1,10.4,8,10.4,8z"/>
</g>
</svg>
