<?xml version="1.0" encoding="utf-8"?>
<!-- Generator: Adobe Illustrator 18.0.0, SVG Export Plug-In . SVG Version: 6.00 Build 0)  -->
<!DOCTYPE svg PUBLIC "-//W3C//DTD SVG 1.1//EN" "http://www.w3.org/Graphics/SVG/1.1/DTD/svg11.dtd">
<svg version="1.1" id="Layer_1" xmlns="http://www.w3.org/2000/svg" xmlns:xlink="http://www.w3.org/1999/xlink" x="0px" y="0px"
	 width="30px" height="30px" viewBox="0 0 30 30" enable-background="new 0 0 30 30" xml:space="preserve">
<path fill="#FFFFFF" d="M8.7,5.6c0.9,0,1.7,0.1,2.4,0.2C11.8,6,12.4,6.2,13,6.6c0.5,0.4,0.9,0.8,1.2,1.4c0.3,0.6,0.4,1.3,0.4,2.2
	c0,0.9-0.2,1.7-0.6,2.3c-0.4,0.6-1,1.1-1.9,1.5c1.1,0.3,2,0.9,2.5,1.7c0.6,0.8,0.8,1.8,0.8,3c0,0.9-0.2,1.7-0.5,2.4
	c-0.4,0.7-0.9,1.2-1.5,1.7c-0.6,0.4-1.3,0.8-2.1,1c-0.8,0.2-1.6,0.3-2.4,0.3H0V5.6H8.7z M8.2,13.1c0.7,0,1.3-0.2,1.8-0.5
	c0.5-0.3,0.7-0.9,0.7-1.7c0-0.4-0.1-0.8-0.2-1.1c-0.2-0.3-0.4-0.5-0.6-0.6C9.5,9,9.3,8.9,8.9,8.8c-0.3-0.1-0.7-0.1-1-0.1H4.1v4.3
	H8.2z M8.4,20.9c0.4,0,0.8,0,1.1-0.1c0.4-0.1,0.7-0.2,1-0.4c0.3-0.2,0.5-0.4,0.7-0.7c0.2-0.3,0.2-0.7,0.2-1.2c0-1-0.3-1.6-0.8-2
	c-0.5-0.4-1.2-0.6-2.1-0.6H4.1v5.1H8.4z"/>
<path fill="#FFFFFF" d="M21.2,20.8c0.5,0.5,1.3,0.8,2.4,0.8c0.7,0,1.4-0.2,1.9-0.6c0.5-0.4,0.9-0.8,1-1.2h3.2
	c-0.5,1.6-1.3,2.8-2.4,3.4c-1.1,0.7-2.4,1-3.9,1c-1.1,0-2-0.2-2.9-0.5c-0.8-0.3-1.6-0.8-2.2-1.4c-0.6-0.6-1-1.4-1.4-2.2
	c-0.3-0.9-0.5-1.8-0.5-2.8c0-1,0.2-1.9,0.5-2.8c0.3-0.9,0.8-1.6,1.4-2.2c0.6-0.6,1.3-1.1,2.2-1.5c0.8-0.4,1.8-0.5,2.8-0.5
	c1.1,0,2.1,0.2,3,0.7c0.8,0.4,1.5,1,2.1,1.8c0.5,0.7,0.9,1.6,1.2,2.5c0.2,0.9,0.3,1.9,0.3,3h-9.6C20.3,19.3,20.7,20.3,21.2,20.8z
	 M25.5,13.8c-0.4-0.5-1.2-0.7-2.1-0.7c-0.6,0-1.1,0.1-1.5,0.3c-0.4,0.2-0.7,0.4-0.9,0.7c-0.2,0.3-0.4,0.6-0.5,0.9
	c-0.1,0.3-0.2,0.6-0.2,0.9h6C26.2,15,25.9,14.3,25.5,13.8z"/>
<rect x="19.6" y="6.8" fill="#FFFFFF" width="7.5" height="1.8"/>
</svg>
