<svg width="78" height="78" xmlns="http://www.w3.org/2000/svg">
 <g>
  <title>Layer 1</title>
  <g id="svg_1">
   <g id="svg_2">
    <path id="svg_3" fill="#ffffff" d="m70.806999,6.191c-7.214996,-7.216 -12.628998,-6.133 -12.628998,-6.133l-25.260002,25.258999l-28.868999,28.868002l-5.049,23.814999l23.812,-5.051003l28.868999,-28.868996l25.260002,-25.257002c0,0.000999 1.084,-5.414 -6.134003,-12.632zm-49.411999,63.894999l-8.117001,1.748001c-0.785,-1.467003 -1.727,-2.931999 -3.455,-4.658997c-1.727,-1.727005 -3.193,-2.669006 -4.658,-3.456001l1.75,-8.116001l2.346,-2.348c0,0 4.418,0.087997 9.404001,5.077999c4.987999,4.987 5.077999,9.406998 5.077999,9.406998l-2.348,2.346001z"/>
   </g>
  </g>
  <g id="svg_4"/>
  <g id="svg_5"/>
  <g id="svg_6"/>
  <g id="svg_7"/>
  <g id="svg_8"/>
  <g id="svg_9"/>
  <g id="svg_10"/>
  <g id="svg_11"/>
  <g id="svg_12"/>
  <g id="svg_13"/>
  <g id="svg_14"/>
  <g id="svg_15"/>
  <g id="svg_16"/>
  <g id="svg_17"/>
  <g id="svg_18"/>
 </g>
</svg>