<?xml version="1.0" encoding="utf-8"?>
<!-- Generator: Adobe Illustrator 17.0.0, SVG Export Plug-In . SVG Version: 6.00 Build 0)  -->
<!DOCTYPE svg PUBLIC "-//W3C//DTD SVG 1.1//EN" "http://www.w3.org/Graphics/SVG/1.1/DTD/svg11.dtd">
<svg version="1.1" id="Capa_1" xmlns="http://www.w3.org/2000/svg" xmlns:xlink="http://www.w3.org/1999/xlink" x="0px" y="0px"
	 width="400px" height="400px" viewBox="0 0 400 400" enable-background="new 0 0 400 400" xml:space="preserve">
<g>
	<g>
		<path fill="#FFFFFF" d="M141.26,209.524c21.929,9.794,56.361,11.532,56.361,11.532c0.77,0.017,1.523,0.021,2.278,0.025v0.002
			c0.034,0,0.067-0.001,0.101-0.001s0.069,0.001,0.103,0.001v-0.002c0.756-0.004,1.513-0.01,2.278-0.025
			c0,0,34.431-1.738,56.359-11.533c0,0,3.133-0.736,3.234-7.923c0,0-1.128-31.49-10.663-45.648c0,0-2.389-3.669-9.158-6.193
			c0,0-22.08-6.728-23.567-12.444c0,0-7.314,18.938-18.585,18.725c-11.27,0.213-18.586-18.724-18.586-18.724
			c-1.488,5.716-23.566,12.444-23.566,12.444c-6.72,2.421-9.16,6.193-9.16,6.193c-9.535,14.157-10.663,45.647-10.663,45.647
			C138.127,208.788,141.26,209.524,141.26,209.524z"/>
		<path fill="#FFFFFF" d="M175.685,114.844c1.622,13.622,13.33,27.73,23.944,27.73c12.209,0,23.794-14.859,25.616-27.729
			c0.668-0.476,1.823-1.663,2.208-4.346c0,0,2.591-9.31-0.871-8.315c1.238-3.577,5.216-17.584-2.49-26.275
			c0,0-3.593-4.964-12.418-7.597c-0.352-0.242-0.633-0.501-1.003-0.761c0,0,0.2,0.242,0.433,0.618
			c-0.467-0.117-0.986-0.234-1.505-0.36c-0.485-0.526-1.051-1.045-1.637-1.588c0,0,0.553,0.543,1.17,1.487
			c-0.266-0.067-0.452-0.159-0.685-0.176c-0.387-0.627-0.885-1.229-1.523-1.847c0,0,0.268,0.468,0.635,1.22
			c-1.671-1.187-4.908-3.936-4.908-7.003c0,0-2.066,0.945-3.218,2.674c-0.495-0.771-0.067-1.68-0.067-1.68
			c-0.936,0.526-3.371,2.49-4.14,5.156l-0.698-0.945c-1.42-1.63-3.92-0.376-3.92-0.376s-12.885,5.575-16.621,17.133
			c0,0-2.156,5.198,0.719,20.5c-4.104-1.931-1.304,8.131-1.304,8.131C173.837,113.198,174.949,114.385,175.685,114.844z"/>
		<path fill="#FFFFFF" d="M288.587,16.23V0h-25.939v16.23H137.355V0h-25.924v16.23H57.275V400h285.45V16.23H288.587z M72.17,385.158
			V31.081h39.262V51.84h25.924V31.081h125.326V51.84h25.906V31.081h39.277l0.002,354.077H72.17z"/>
		<rect x="106.609" y="335.049" fill="#FFFFFF" width="151.161" height="15.042"/>
		<rect x="106.586" y="246.947" fill="#FFFFFF" width="195.642" height="14.974"/>
		<rect x="106.586" y="277.051" fill="#FFFFFF" width="180.834" height="15.059"/>
		<rect x="106.586" y="306.3" fill="#FFFFFF" width="165.993" height="14.959"/>
	</g>
</g>
</svg>
