<?xml version="1.0" encoding="utf-8"?>
<!-- Generator: Adobe Illustrator 18.0.0, SVG Export Plug-In . SVG Version: 6.00 Build 0)  -->
<!DOCTYPE svg PUBLIC "-//W3C//DTD SVG 1.1//EN" "http://www.w3.org/Graphics/SVG/1.1/DTD/svg11.dtd">
<svg version="1.1" id="Layer_1" xmlns="http://www.w3.org/2000/svg" xmlns:xlink="http://www.w3.org/1999/xlink" x="0px" y="0px"
	 width="30px" height="30px" viewBox="0 0 30 30" enable-background="new 0 0 30 30" xml:space="preserve">
<path fill="#FFFFFF" d="M7.9,26.8H2.6V10.5h5.3V26.8z"/>
<path fill="#FFFFFF" d="M27.5,16.3c0,2.9,0,10.5,0,10.5h-5.3c0,0,0-6.3,0-8.6s-0.6-4.1-4-4c-1.5,0.1-2.5,0.9-3.1,1.8v10.7H9.7V10.6
	h5.4v1.8c1.3-1.7,3.3-1.8,5.6-1.8C25.1,10.5,27.5,13.4,27.5,16.3z"/>
<path fill="#FFFFFF" d="M7.9,6.2c0,1.7-0.8,2.5-2.8,2.5S2.5,7.8,2.5,6.2c0-1.8,0.7-2.9,2.7-2.9C7.2,3.3,7.9,4.4,7.9,6.2z"/>
</svg>
