<?xml version="1.0" encoding="utf-8"?>
<!-- Generator: Adobe Illustrator 18.0.0, SVG Export Plug-In . SVG Version: 6.00 Build 0)  -->
<!DOCTYPE svg PUBLIC "-//W3C//DTD SVG 1.1//EN" "http://www.w3.org/Graphics/SVG/1.1/DTD/svg11.dtd">
<svg version="1.1" id="Layer_1" xmlns="http://www.w3.org/2000/svg" xmlns:xlink="http://www.w3.org/1999/xlink" x="0px" y="0px"
	 width="30px" height="30px" viewBox="0 0 30 30" enable-background="new 0 0 30 30" xml:space="preserve">
<path fill="#FFFFFF" d="M8.2,4.9c0,0,2.4-1.4,3.2,0.1c0.6,0.5,2.3,9,2.7,10.8c0.3,1.8,1.2,2.4,1.8,1.7c0.5-0.8,2.1-2.3,3.3-5.1
	s0-2.7-0.5-2.5C18.1,10,15.9,10,16.8,9c0.9-1.1,2.8-3.6,3.4-3.8c1.1-0.8,3.3-1.7,4.7-0.1c0.8,0.6,2.8,3,0.9,6.5s-10,13.3-10,13.3
	s-2.7,1.8-3.9,0c-1.1-1.8-4.7-12.5-4.8-13.6C7,10,6.6,9.7,6.1,10c-0.7,0.5-1.8,2.1-1.9,1.5c-0.1-0.5-1.1-0.9-0.4-2
	C4.4,8.5,7.8,5.3,8.2,4.9z"/>
</svg>
