<?xml version="1.0" encoding="utf-8"?>
<!-- Generator: Adobe Illustrator 17.0.0, SVG Export Plug-In . SVG Version: 6.00 Build 0)  -->
<!DOCTYPE svg PUBLIC "-//W3C//DTD SVG 1.1//EN" "http://www.w3.org/Graphics/SVG/1.1/DTD/svg11.dtd">
<svg version="1.1" id="Layer_1" xmlns="http://www.w3.org/2000/svg" xmlns:xlink="http://www.w3.org/1999/xlink" x="0px" y="0px"
	 width="400px" height="400px" viewBox="0 0 400 400" enable-background="new 0 0 400 400" xml:space="preserve">
<circle stroke="#000000" stroke-miterlimit="10" cx="201" cy="200.169" r="195.07"/>
<line fill="none" stroke="#FFFFFF" stroke-miterlimit="10" x1="413.028" y1="256.606" x2="414.437" y2="255.901"/>
<line fill="none" stroke="#FFFFFF" stroke-width="9" stroke-miterlimit="10" x1="246" y1="90.5" x2="352" y2="90.5"/>
<line fill="none" stroke="#FFFFFF" stroke-width="9" stroke-miterlimit="10" x1="347.5" y1="88" x2="347.5" y2="281"/>
<path fill="none" stroke="#FFFFFF" stroke-width="9" stroke-miterlimit="10" d="M348,276c0,36.636-35.128,50-93,50"/>
<path fill="none" stroke="#FFFFFF" stroke-width="9" stroke-miterlimit="10" d="M255,326L142.516,81.149L255,326z"/>
<path fill="none" stroke="#FFFFFF" stroke-width="9" stroke-miterlimit="10" d="M145,81L65,331L145,81z"/>
<line fill="none" stroke="#FFFFFF" stroke-width="9" stroke-miterlimit="10" x1="63.333" y1="328.667" x2="155.862" y2="328"/>
<g>
	<g>
		<path fill="#FFFFFF" d="M254.306,328.148c1.935,0,1.935-3,0-3C252.371,325.148,252.371,328.148,254.306,328.148L254.306,328.148z"
			/>
	</g>
</g>
<g>
	<g>
		<path fill="#FFFFFF" d="M254.072,329.318c1.935,0,1.935-3,0-3S252.137,329.318,254.072,329.318L254.072,329.318z"/>
	</g>
</g>
<g>
	<g>
		<path fill="#FFFFFF" d="M255.242,327.913c1.935,0,1.935-3,0-3C253.308,324.913,253.308,327.913,255.242,327.913L255.242,327.913z"
			/>
	</g>
</g>
<g>
	<g>
		<path fill="#FFFFFF" d="M253.838,327.913c1.935,0,1.935-3,0-3C251.903,324.913,251.903,327.913,253.838,327.913L253.838,327.913z"
			/>
	</g>
</g>
<g>
	<g>
		<path fill="#FFFFFF" d="M252.667,329.318c1.935,0,1.935-3,0-3C250.733,326.318,250.733,329.318,252.667,329.318L252.667,329.318z"
			/>
	</g>
</g>
<g>
	<g>
		<path fill="#FFFFFF" d="M254.774,330.489c1.935,0,1.935-3,0-3C252.84,327.489,252.84,330.489,254.774,330.489L254.774,330.489z"/>
	</g>
</g>
<g>
	<g>
		<path fill="#FFFFFF" d="M254.306,330.489c1.935,0,1.935-3,0-3C252.371,327.489,252.371,330.489,254.306,330.489L254.306,330.489z"
			/>
	</g>
</g>
<g>
	<g>
		<path fill="#FFFFFF" d="M62.621,332.052c1.935,0,1.935-3,0-3C60.686,329.052,60.686,332.052,62.621,332.052L62.621,332.052z"/>
	</g>
</g>
<g>
	<g>
		<path fill="#FFFFFF" d="M64,332.052c1.935,0,1.935-3,0-3C62.065,329.052,62.065,332.052,64,332.052L64,332.052z"/>
	</g>
</g>
</svg>
